# Blender v3.2.0 OBJ File: 'carpet.blend'
# www.blender.org
mtllib carpet.mtl
o Plane041
v -492.771851 12.003371 162.636078
v -492.771851 12.003343 525.708252
v -262.662659 12.003343 525.708252
v -262.662659 12.003371 162.636078
v -32.553707 12.003343 525.708252
v -32.553707 12.003371 162.636078
v 197.555191 12.003343 525.708252
v 197.555191 12.003371 162.636078
v 517.952087 12.003343 525.708252
v 517.952087 12.003371 162.636078
v -492.771851 12.003400 -12.208658
v -262.662659 12.003400 -12.208658
v -32.553707 12.003400 -12.208658
v 197.555191 12.003400 -12.208658
v 517.952087 12.003400 -12.208658
v -492.771851 12.003428 -187.053421
v -262.662659 12.003428 -187.053421
v -32.553707 12.003428 -187.053421
v 197.555191 12.003428 -187.053421
v 517.952087 12.003428 -187.053421
v -492.771851 12.003457 -568.489136
v -262.662659 12.003457 -568.489136
v -32.553707 12.003457 -568.489136
v 197.555191 12.003457 -568.489136
v 517.952087 12.003457 -568.489136
v -736.718262 12.003371 162.636078
v -736.718262 12.003343 525.708252
v -736.718262 12.003400 -12.208658
v -736.718262 12.003428 -187.053421
v -736.718262 12.003457 -568.489136
vt 1.000000 0.000000
vt 1.000000 0.759834
vt 0.000000 0.759834
vt 0.000000 0.000000
vt 0.000000 0.759835
vt 0.000000 0.000000
vt 1.000000 0.000000
vt 1.000000 0.759835
vt 1.000000 0.000000
vt 1.000000 0.759835
vt 0.000000 0.759835
vt 0.000000 0.000000
vt 1.000000 0.000000
vt 1.000000 0.759835
vt 0.000000 0.759835
vt 0.000000 0.000000
vt 1.000000 0.000000
vt 1.000000 0.759834
vt 0.000000 0.000000
vt 0.759835 0.000000
vt 0.759835 1.000000
vt 0.000000 1.000000
vt 1.000000 0.000000
vt 0.000000 0.759835
vt 0.000000 0.000000
vt 0.759835 0.000000
vt 0.759835 1.000000
vt 0.000000 1.000000
vt 1.000000 0.000000
vt 1.000000 0.759834
vt 0.000000 0.759834
vt 0.000000 0.000000
vt 0.000000 0.759835
vt 1.000000 0.759835
vt 1.000000 0.000000
vt 1.000000 0.759835
vt 0.000000 0.759835
vt 0.000000 0.000000
vt 1.000000 0.000000
vt 1.000000 0.759835
vt 0.000000 0.759835
vt 0.000000 0.000000
vt 1.000000 1.000000
vt 0.000000 1.000000
vt 1.000000 0.000000
vt 1.000000 1.000000
vt 0.000000 1.000000
vt 0.000000 0.000000
vt 1.000000 0.000000
vt 1.000000 1.000000
vt 0.000000 1.000000
vt 1.000000 0.000000
vt 0.000000 0.000000
vt 0.759835 0.000000
vt 0.759835 1.000000
vt 0.000000 1.000000
vt 0.000000 0.000000
vt 1.000000 0.000000
vt 1.000000 1.000000
vt 0.000000 1.000000
vt 0.000000 1.000000
vt 0.000000 0.000000
vt 1.000000 0.000000
vt 1.000000 1.000000
vt 1.000000 1.000000
vt 0.000000 1.000000
vt 0.000000 0.000000
vt 1.000000 1.000000
vt 0.000000 1.000000
vn 0.0000 1.0000 0.0000
usemtl wire_225088199
s 1
f 1/1/1 2/2/1 3/3/1 4/4/1
f 4/5/1 3/6/1 5/7/1 6/8/1
f 6/9/1 5/10/1 7/11/1 8/12/1
f 8/13/1 7/14/1 9/15/1 10/16/1
f 11/17/1 1/18/1 4/5/1 12/19/1
f 12/19/1 4/20/1 6/21/1 13/22/1
f 13/23/1 6/8/1 8/24/1 14/25/1
f 14/25/1 8/26/1 10/27/1 15/28/1
f 16/29/1 11/30/1 12/31/1 17/32/1
f 17/33/1 12/19/1 13/23/1 18/34/1
f 18/35/1 13/36/1 14/37/1 19/38/1
f 19/39/1 14/40/1 15/41/1 20/42/1
f 21/43/1 16/44/1 17/32/1 22/45/1
f 22/46/1 17/47/1 18/48/1 23/49/1
f 23/50/1 18/51/1 19/38/1 24/52/1
f 24/53/1 19/54/1 20/55/1 25/56/1
f 16/57/1 21/58/1 30/59/1 29/60/1
f 2/61/1 1/62/1 26/63/1 27/64/1
f 1/62/1 11/17/1 28/65/1 26/66/1
f 11/67/1 16/29/1 29/68/1 28/69/1
